<?xml version="1.0" encoding="UTF-8" standalone="no"?>
<!DOCTYPE svg PUBLIC "-//W3C//DTD SVG 1.1//EN"
 "http://www.w3.org/Graphics/SVG/1.1/DTD/svg11.dtd">
<!-- Generated by graphviz version 2.30.1 (20201013.1554)
 -->
<!-- Title: Query Pages: 1 -->
<svg width="390pt" height="354pt"
 viewBox="0.00 0.00 390.00 354.00" xmlns="http://www.w3.org/2000/svg" xmlns:xlink="http://www.w3.org/1999/xlink">
<g id="graph0" class="graph" transform="scale(1 1) rotate(0) translate(4 350)">
<title>Query</title>
<polygon fill="white" stroke="white" points="-4,5 -4,-350 387,-350 387,5 -4,5"/>
<!-- node1 -->
<g id="node1" class="node"><title>node1</title>
<polygon fill="none" stroke="green" points="0.5,-0.5 0.5,-345.5 227.5,-345.5 227.5,-0.5 0.5,-0.5"/>
<text text-anchor="middle" x="114" y="-330.3" font-family="Times,serif" font-size="14.00">RELOPTINFO</text>
<polyline fill="none" stroke="green" points="0.5,-322.5 227.5,-322.5 "/>
<text text-anchor="middle" x="114" y="-307.3" font-family="Times,serif" font-size="14.00">relids (b 1)</text>
<polyline fill="none" stroke="green" points="0.5,-299.5 227.5,-299.5 "/>
<text text-anchor="middle" x="114" y="-284.3" font-family="Times,serif" font-size="14.00">reltarget</text>
<polyline fill="none" stroke="green" points="0.5,-276.5 227.5,-276.5 "/>
<text text-anchor="middle" x="114" y="-261.3" font-family="Times,serif" font-size="14.00">pathlist</text>
<polyline fill="none" stroke="green" points="0.5,-253.5 227.5,-253.5 "/>
<text text-anchor="middle" x="114" y="-238.3" font-family="Times,serif" font-size="14.00">direct_lateral_relids (b)</text>
<polyline fill="none" stroke="green" points="0.5,-230.5 227.5,-230.5 "/>
<text text-anchor="middle" x="114" y="-215.3" font-family="Times,serif" font-size="14.00">lateral_relids (b)</text>
<polyline fill="none" stroke="green" points="0.5,-207.5 227.5,-207.5 "/>
<text text-anchor="middle" x="114" y="-192.3" font-family="Times,serif" font-size="14.00">relid 1</text>
<polyline fill="none" stroke="green" points="0.5,-184.5 227.5,-184.5 "/>
<text text-anchor="middle" x="114" y="-169.3" font-family="Times,serif" font-size="14.00">min_attr &#45;7</text>
<polyline fill="none" stroke="green" points="0.5,-161.5 227.5,-161.5 "/>
<text text-anchor="middle" x="114" y="-146.3" font-family="Times,serif" font-size="14.00">max_attr 1</text>
<polyline fill="none" stroke="green" points="0.5,-138.5 227.5,-138.5 "/>
<text text-anchor="middle" x="114" y="-123.3" font-family="Times,serif" font-size="14.00">lateral_referencers (b)</text>
<polyline fill="none" stroke="green" points="0.5,-115.5 227.5,-115.5 "/>
<text text-anchor="middle" x="114" y="-100.3" font-family="Times,serif" font-size="14.00">tuples 52800</text>
<polyline fill="none" stroke="green" points="0.5,-92.5 227.5,-92.5 "/>
<text text-anchor="middle" x="114" y="-77.3" font-family="Times,serif" font-size="14.00">rel_parallel_workers &#45;1</text>
<polyline fill="none" stroke="green" points="0.5,-69.5 227.5,-69.5 "/>
<text text-anchor="middle" x="114" y="-54.3" font-family="Times,serif" font-size="14.00">serverid 16399</text>
<polyline fill="none" stroke="green" points="0.5,-46.5 227.5,-46.5 "/>
<text text-anchor="middle" x="114" y="-31.3" font-family="Times,serif" font-size="14.00">baserestrict_min_security 4294967295</text>
<polyline fill="none" stroke="green" points="0.5,-23.5 227.5,-23.5 "/>
<text text-anchor="middle" x="114" y="-8.3" font-family="Times,serif" font-size="14.00">top_parent_relids (b)</text>
</g>
<!-- node2 -->
<g id="node2" class="node"><title>node2</title>
<polygon fill="none" stroke="black" points="272.5,-274 272.5,-320 373.5,-320 373.5,-274 272.5,-274"/>
<text text-anchor="middle" x="323" y="-304.8" font-family="Times,serif" font-size="14.00">PATHTARGET</text>
<polyline fill="none" stroke="black" points="272.5,-297 373.5,-297 "/>
<text text-anchor="middle" x="323" y="-281.8" font-family="Times,serif" font-size="14.00"> </text>
</g>
<!-- node1&#45;&gt;node2 -->
<g id="edge1" class="edge"><title>node1:f2&#45;&gt;node2:f0</title>
<path fill="none" stroke="black" d="M228,-288C245.281,-288 248.826,-301.863 260.957,-307.062"/>
<polygon fill="black" stroke="black" points="260.518,-310.542 271,-309 261.844,-303.669 260.518,-310.542"/>
</g>
<!-- node3 -->
<g id="node3" class="node"><title>node3</title>
<polygon fill="none" stroke="black" points="264.5,-117 264.5,-255 381.5,-255 381.5,-117 264.5,-117"/>
<text text-anchor="middle" x="323" y="-239.8" font-family="Times,serif" font-size="14.00">FOREIGNPATH</text>
<polyline fill="none" stroke="black" points="264.5,-232 381.5,-232 "/>
<text text-anchor="middle" x="323" y="-216.8" font-family="Times,serif" font-size="14.00">pathtype 46</text>
<polyline fill="none" stroke="black" points="264.5,-209 381.5,-209 "/>
<text text-anchor="middle" x="323" y="-193.8" font-family="Times,serif" font-size="14.00">parent_relids (b 1)</text>
<polyline fill="none" stroke="black" points="264.5,-186 381.5,-186 "/>
<text text-anchor="middle" x="323" y="-170.8" font-family="Times,serif" font-size="14.00">required_outer (b)</text>
<polyline fill="none" stroke="black" points="264.5,-163 381.5,-163 "/>
<text text-anchor="middle" x="323" y="-147.8" font-family="Times,serif" font-size="14.00">locustype 9</text>
<polyline fill="none" stroke="black" points="264.5,-140 381.5,-140 "/>
<text text-anchor="middle" x="323" y="-124.8" font-family="Times,serif" font-size="14.00">numsegments 3</text>
</g>
<!-- node1&#45;&gt;node3 -->
<g id="edge2" class="edge"><title>node1:f3&#45;&gt;node3:f0</title>
<path fill="none" stroke="black" d="M228,-265C242.471,-265 244.998,-252.183 254.244,-246.575"/>
<polygon fill="black" stroke="black" points="255.224,-249.936 264,-244 253.438,-243.168 255.224,-249.936"/>
</g>
</g>
</svg>
